<svg xmlns="http://www.w3.org/2000/svg" width="489.956" height="489.956" viewBox="0 0 489.956 489.956"><g transform="translate(-114.464 -638.464)"><path d="M49,4.472,3.236,95.991H94.755L49,4.472M49,0l49,97.991H0Z" transform="translate(311.552 887.13) rotate(-20)" fill="#fff"/><path d="M97.991,4.472,3.236,193.983h189.51L97.991,4.472m0-4.472,97.991,195.983H0Z" transform="matrix(0.966, -0.259, 0.259, 0.966, 249.367, 835.466)" fill="#fff"/><path d="M146.987,4.472,3.236,291.974h287.5L146.987,4.472m0-4.472L293.974,293.974H0Z" transform="matrix(0.985, -0.174, 0.174, 0.985, 195.79, 778.422)" fill="#fff"/><path d="M195.983,4.472,3.236,389.965H388.729L195.983,4.472m0-4.472L391.965,391.965H0Z" transform="matrix(0.996, -0.087, 0.087, 0.996, 151.266, 714.167)" fill="#fff"/><path d="M244.978,4.472,3.236,487.956H486.72L244.978,4.472m0-4.472L489.956,489.956H0Z" transform="translate(114.464 638.464)" fill="#fff"/></g></svg>