<svg width="300" height="300" viewBox="0 0 300 300" fill="none" xmlns="http://www.w3.org/2000/svg">
<mask id="path-1-inside-1_4_28" fill="white">
<path d="M125 125H175V175H125V125Z"/>
<path d="M100 100H200V200H100V100Z"/>
<path d="M75 75H225V225H75V75Z"/>
<path d="M50 50H250V250H50V50Z"/>
<path d="M25 25H275V275H25V25Z"/>
<path d="M0 0H300V300H0V0Z"/>
</mask>
<path d="M125 125V124H124V125H125ZM175 125H176V124H175V125ZM175 175V176H176V175H175ZM125 175H124V176H125V175ZM100 100V99H99V100H100ZM200 100H201V99H200V100ZM200 200V201H201V200H200ZM100 200H99V201H100V200ZM75 75V74H74V75H75ZM225 75H226V74H225V75ZM225 225V226H226V225H225ZM75 225H74V226H75V225ZM50 50V49H49V50H50ZM250 50H251V49H250V50ZM250 250V251H251V250H250ZM50 250H49V251H50V250ZM25 25V24H24V25H25ZM275 25H276V24H275V25ZM275 275V276H276V275H275ZM25 275H24V276H25V275ZM0 0V-1H-1V0H0ZM300 0H301V-1H300V0ZM300 300V301H301V300H300ZM0 300H-1V301H0V300ZM125 126H175V124H125V126ZM174 125V175H176V125H174ZM175 174H125V176H175V174ZM126 175V125H124V175H126ZM100 101H200V99H100V101ZM199 100V200H201V100H199ZM200 199H100V201H200V199ZM101 200V100H99V200H101ZM75 76H225V74H75V76ZM224 75V225H226V75H224ZM225 224H75V226H225V224ZM76 225V75H74V225H76ZM50 51H250V49H50V51ZM249 50V250H251V50H249ZM250 249H50V251H250V249ZM51 250V50H49V250H51ZM25 26H275V24H25V26ZM274 25V275H276V25H274ZM275 274H25V276H275V274ZM26 275V25H24V275H26ZM0 1H300V-1H0V1ZM299 0V300H301V0H299ZM300 299H0V301H300V299ZM1 300V0H-1V300H1Z" fill="white" mask="url(#path-1-inside-1_4_28)"/>
</svg>
